<svg width="20" height="16" viewBox="0 0 20 16" fill="none" xmlns="http://www.w3.org/2000/svg">
<path id="Vector" d="M1 1V0H0V1H1ZM19 1H20V0H19V1ZM19 15V16H20V15H19ZM1 15H0V16H1V15ZM10 9L9.33564 9.74741C9.71452 10.0842 10.2855 10.0842 10.6644 9.74741L10 9ZM8.08564 7.61869C8.42733 7.18479 8.35258 6.55606 7.91869 6.21436C7.48479 5.87267 6.85606 5.94742 6.51436 6.38131L8.08564 7.61869ZM13.4856 6.38131C13.1439 5.94742 12.5152 5.87267 12.0813 6.21436C11.6474 6.55606 11.5727 7.18479 11.9144 7.61869L13.4856 6.38131ZM1 2H19V0H1V2ZM18 1V15H20V1H18ZM19 14H1V16H19V14ZM2 15V1H0V15H2ZM0.335636 1.74741L9.33564 9.74741L10.6644 8.25259L1.66436 0.252591L0.335636 1.74741ZM10.6644 9.74741L19.6644 1.74741L18.3356 0.252591L9.33564 8.25259L10.6644 9.74741ZM6.51436 6.38131L0.214364 14.3813L1.78564 15.6187L8.08564 7.61869L6.51436 6.38131ZM11.9144 7.61869L18.2144 15.6187L19.7856 14.3813L13.4856 6.38131L11.9144 7.61869Z" fill="#94C0E9"/>
</svg>
