<svg width="20" height="20" viewBox="0 0 20 20" fill="none" xmlns="http://www.w3.org/2000/svg">
<g id="icon_&#234;&#179;&#181;&#236;&#167;&#128;">
<rect width="20" height="20" rx="10" fill="#94C0E9"/>
<path id="icon" d="M10 11.6364C10.5304 11.6364 11.0391 11.4065 11.4142 10.9973C11.7893 10.5882 12 10.0332 12 9.45455V6.18182C12 5.60316 11.7893 5.04821 11.4142 4.63904C11.0391 4.22987 10.5304 4 10 4C9.46957 4 8.96086 4.22987 8.58579 4.63904C8.21071 5.04821 8 5.60316 8 6.18182V9.45455C8 10.0332 8.21071 10.5882 8.58579 10.9973C8.96086 11.4065 9.46957 11.6364 10 11.6364ZM9 6.18182C9 5.89249 9.10536 5.61501 9.29289 5.41043C9.48043 5.20584 9.73478 5.09091 10 5.09091C10.2652 5.09091 10.5196 5.20584 10.7071 5.41043C10.8946 5.61501 11 5.89249 11 6.18182V9.45455C11 9.74387 10.8946 10.0213 10.7071 10.2259C10.5196 10.4305 10.2652 10.5455 10 10.5455C9.73478 10.5455 9.48043 10.4305 9.29289 10.2259C9.10536 10.0213 9 9.74387 9 9.45455V6.18182ZM14 9.45455C14 9.30988 13.9473 9.17114 13.8536 9.06885C13.7598 8.96656 13.6326 8.90909 13.5 8.90909C13.3674 8.90909 13.2402 8.96656 13.1464 9.06885C13.0527 9.17114 13 9.30988 13 9.45455C13 10.3225 12.6839 11.155 12.1213 11.7687C11.5587 12.3825 10.7956 12.7273 10 12.7273C9.20435 12.7273 8.44129 12.3825 7.87868 11.7687C7.31607 11.155 7 10.3225 7 9.45455C7 9.30988 6.94732 9.17114 6.85355 9.06885C6.75979 8.96656 6.63261 8.90909 6.5 8.90909C6.36739 8.90909 6.24021 8.96656 6.14645 9.06885C6.05268 9.17114 6 9.30988 6 9.45455C6.00088 10.5167 6.35686 11.542 7.0012 12.3383C7.64554 13.1346 8.53399 13.6472 9.5 13.78V14.9091H8.5C8.36739 14.9091 8.24021 14.9666 8.14645 15.0689C8.05268 15.1711 8 15.3099 8 15.4545C8 15.5992 8.05268 15.7379 8.14645 15.8402C8.24021 15.9425 8.36739 16 8.5 16H11.5C11.6326 16 11.7598 15.9425 11.8536 15.8402C11.9473 15.7379 12 15.5992 12 15.4545C12 15.3099 11.9473 15.1711 11.8536 15.0689C11.7598 14.9666 11.6326 14.9091 11.5 14.9091H10.5V13.78C11.466 13.6472 12.3545 13.1346 12.9988 12.3383C13.6431 11.542 13.9991 10.5167 14 9.45455Z" fill="white"/>
</g>
</svg>
